<svg width="52" height="55" viewBox="0 0 52 55" fill="none" xmlns="http://www.w3.org/2000/svg">
<g filter="url(#filter0_d_400_28)">
<path d="M26 4.33337C23.1547 4.33337 20.3372 4.8938 17.7085 5.98265C15.0798 7.0715 12.6913 8.66746 10.6793 10.6794C6.61604 14.7427 4.33331 20.2537 4.33331 26C4.33331 35.5767 10.5516 43.7017 19.1533 46.5834C20.2366 46.7567 20.5833 46.085 20.5833 45.5V41.8384C14.5816 43.1384 13.3033 38.935 13.3033 38.935C12.3066 36.4217 10.8983 35.75 10.8983 35.75C8.92665 34.4067 11.05 34.45 11.05 34.45C13.2166 34.6017 14.365 36.6817 14.365 36.6817C16.25 39.975 19.435 39 20.67 38.48C20.865 37.0717 21.4283 36.1184 22.035 35.5767C17.225 35.035 12.1766 33.1717 12.1766 24.9167C12.1766 22.5117 13 20.5834 14.4083 19.045C14.1916 18.5034 13.4333 16.25 14.625 13.325C14.625 13.325 16.445 12.74 20.5833 15.535C22.295 15.0584 24.1583 14.82 26 14.82C27.8416 14.82 29.705 15.0584 31.4166 15.535C35.555 12.74 37.375 13.325 37.375 13.325C38.5666 16.25 37.8083 18.5034 37.5916 19.045C39 20.5834 39.8233 22.5117 39.8233 24.9167C39.8233 33.1934 34.7533 35.0134 29.9216 35.555C30.7016 36.2267 31.4166 37.5484 31.4166 39.5634V45.5C31.4166 46.085 31.7633 46.7784 32.8683 46.5834C41.47 43.68 47.6666 35.5767 47.6666 26C47.6666 23.1547 47.1062 20.3373 46.0174 17.7086C44.9285 15.0798 43.3326 12.6913 41.3206 10.6794C39.3087 8.66746 36.9202 7.0715 34.2915 5.98265C31.6627 4.8938 28.8453 4.33337 26 4.33337Z" fill="white"/>
</g>
<defs>
<filter id="filter0_d_400_28" x="-4" y="0" width="60" height="60" filterUnits="userSpaceOnUse" color-interpolation-filters="sRGB">
<feFlood flood-opacity="0" result="BackgroundImageFix"/>
<feColorMatrix in="SourceAlpha" type="matrix" values="0 0 0 0 0 0 0 0 0 0 0 0 0 0 0 0 0 0 127 0" result="hardAlpha"/>
<feOffset dy="4"/>
<feGaussianBlur stdDeviation="2"/>
<feComposite in2="hardAlpha" operator="out"/>
<feColorMatrix type="matrix" values="0 0 0 0 0 0 0 0 0 0 0 0 0 0 0 0 0 0 0.5 0"/>
<feBlend mode="normal" in2="BackgroundImageFix" result="effect1_dropShadow_400_28"/>
<feBlend mode="normal" in="SourceGraphic" in2="effect1_dropShadow_400_28" result="shape"/>
</filter>
</defs>
</svg>
