<svg width="60" height="60" viewBox="0 0 60 60" fill="none" xmlns="http://www.w3.org/2000/svg">
<g clip-path="url(#clip0_400_17)" filter="url(#filter0_d_400_17)">
<path d="M43.8125 0H16.1875C9.45653 0 4 5.45653 4 12.1875V39.8125C4 46.5435 9.45653 52 16.1875 52H43.8125C50.5435 52 56 46.5435 56 39.8125V12.1875C56 5.45653 50.5435 0 43.8125 0Z" fill="#F4F2ED"/>
<path d="M12.4573 41.2423H18.9203V25.5462L9.6875 18.6217V38.4725C9.6875 40.0051 10.9294 41.2423 12.4573 41.2423Z" fill="#4285F4"/>
<path d="M41.0795 41.2423H47.5427C49.0753 41.2423 50.3125 40.0004 50.3125 38.4725V18.6215L41.0795 25.5462" fill="#34A853"/>
<path d="M41.0795 13.5434V25.5463L50.3125 18.6217V14.9281C50.3125 11.5028 46.4024 9.54996 43.6648 11.6044" fill="#FBBC04"/>
<path d="M18.9205 25.5463V13.5436L30 21.8529L41.0794 13.5432V25.5461L30 33.8559" fill="#EA4335"/>
<path d="M9.6875 14.9282V18.6214L18.9203 25.5462V13.5435L16.3352 11.6045C13.593 9.55008 9.6875 11.5029 9.6875 14.9282Z" fill="#C5221F"/>
</g>
<defs>
<filter id="filter0_d_400_17" x="0" y="0" width="60" height="60" filterUnits="userSpaceOnUse" color-interpolation-filters="sRGB">
<feFlood flood-opacity="0" result="BackgroundImageFix"/>
<feColorMatrix in="SourceAlpha" type="matrix" values="0 0 0 0 0 0 0 0 0 0 0 0 0 0 0 0 0 0 127 0" result="hardAlpha"/>
<feOffset dy="4"/>
<feGaussianBlur stdDeviation="2"/>
<feComposite in2="hardAlpha" operator="out"/>
<feColorMatrix type="matrix" values="0 0 0 0 0 0 0 0 0 0 0 0 0 0 0 0 0 0 0.5 0"/>
<feBlend mode="normal" in2="BackgroundImageFix" result="effect1_dropShadow_400_17"/>
<feBlend mode="normal" in="SourceGraphic" in2="effect1_dropShadow_400_17" result="shape"/>
</filter>
<clipPath id="clip0_400_17">
<rect width="52" height="52" fill="white" transform="translate(4)"/>
</clipPath>
</defs>
</svg>
