<svg width="58" height="59" viewBox="0 0 58 59" fill="none" xmlns="http://www.w3.org/2000/svg">
<g filter="url(#filter0_d_400_25)">
<path d="M50.125 1.21869H7.875C6.91638 1.20894 5.99303 1.57987 5.30758 2.25009C4.62212 2.92032 4.23054 3.83509 4.21875 4.79369V47.2143C4.23267 48.1715 4.62519 49.0842 5.31041 49.7527C5.99564 50.4212 6.91777 50.791 7.875 50.7812H50.125C51.0837 50.7888 52.0064 50.4166 52.6915 49.746C53.3766 49.0753 53.7684 48.1608 53.7812 47.2021V4.78151C53.7642 3.82572 53.3705 2.9153 52.6859 2.24815C52.0012 1.58101 51.0809 1.21105 50.125 1.21869Z" fill="#0076B2"/>
<path d="M11.5556 19.7965H18.9128V43.4687H11.5556V19.7965ZM15.2363 8.01526C16.0801 8.01526 16.905 8.26554 17.6065 8.73443C18.3081 9.20332 18.8548 9.86976 19.1776 10.6494C19.5003 11.4291 19.5846 12.287 19.4196 13.1146C19.2547 13.9421 18.848 14.7022 18.2511 15.2986C17.6541 15.895 16.8937 16.3009 16.066 16.465C15.2382 16.6292 14.3804 16.5441 13.6011 16.2206C12.8217 15.8972 12.1558 15.3498 11.6876 14.6478C11.2193 13.9458 10.9698 13.1207 10.9706 12.2768C10.9717 11.1462 11.4216 10.0623 12.2215 9.26319C13.0213 8.46411 14.1057 8.01526 15.2363 8.01526ZM23.5278 19.7965H30.5803V23.0465H30.6778C31.661 21.1859 34.0578 19.2237 37.6369 19.2237C45.0875 19.2074 46.4688 24.1109 46.4688 30.4687V43.4687H39.1116V31.9515C39.1116 29.2093 39.0628 25.679 35.2888 25.679C31.5147 25.679 30.8728 28.669 30.8728 31.7728V43.4687H23.5278V19.7965Z" fill="white"/>
</g>
<defs>
<filter id="filter0_d_400_25" x="-1" y="0" width="60" height="60" filterUnits="userSpaceOnUse" color-interpolation-filters="sRGB">
<feFlood flood-opacity="0" result="BackgroundImageFix"/>
<feColorMatrix in="SourceAlpha" type="matrix" values="0 0 0 0 0 0 0 0 0 0 0 0 0 0 0 0 0 0 127 0" result="hardAlpha"/>
<feOffset dy="4"/>
<feGaussianBlur stdDeviation="2"/>
<feComposite in2="hardAlpha" operator="out"/>
<feColorMatrix type="matrix" values="0 0 0 0 0 0 0 0 0 0 0 0 0 0 0 0 0 0 0.5 0"/>
<feBlend mode="normal" in2="BackgroundImageFix" result="effect1_dropShadow_400_25"/>
<feBlend mode="normal" in="SourceGraphic" in2="effect1_dropShadow_400_25" result="shape"/>
</filter>
</defs>
</svg>
